{
    "asset" : {
        "generator" : "Khronos glTF Blender I/O v3.4.50",
        "version" : "2.0"
    },
    "extensionsUsed" : [
        "KHR_materials_specular",
        "KHR_materials_ior"
    ],
    "scene" : 0,
    "scenes" : [
        {
            "name" : "Scene",
            "nodes" : [
                0,
                1
            ]
        }
    ],
    "nodes" : [
        {
            "mesh" : 0,
            "name" : "TQ_ARD-node"
        },
        {
            "mesh" : 1,
            "name" : "TQ_ARD-node.002"
        }
    ],
    "materials" : [
        {
            "doubleSided" : true,
            "extensions" : {
                "KHR_materials_specular" : {
                    "specularColorFactor" : [
                        0,
                        0,
                        0
                    ]
                },
                "KHR_materials_ior" : {
                    "ior" : 0
                }
            },
            "name" : "TQ_ARD_front",
            "pbrMetallicRoughness" : {
                "baseColorTexture" : {
                    "index" : 0
                },
                "metallicFactor" : 0,
                "roughnessFactor" : 0.5
            }
        },
        {
            "doubleSided" : true,
            "extensions" : {
                "KHR_materials_specular" : {
                    "specularColorFactor" : [
                        0,
                        0,
                        0
                    ]
                },
                "KHR_materials_ior" : {
                    "ior" : 0
                }
            },
            "name" : "TQ_ARD_back",
            "pbrMetallicRoughness" : {
                "baseColorFactor" : [
                    0.996078372001648,
                    0.9019607901573181,
                    0.6627451181411743,
                    1
                ],
                "metallicFactor" : 0,
                "roughnessFactor" : 0.5
            }
        },
        {
            "doubleSided" : true,
            "extensions" : {
                "KHR_materials_specular" : {
                    "specularColorFactor" : [
                        0,
                        0,
                        0
                    ]
                },
                "KHR_materials_ior" : {
                    "ior" : 0
                }
            },
            "name" : "TQ_ARD_edge",
            "pbrMetallicRoughness" : {
                "baseColorTexture" : {
                    "index" : 1
                },
                "metallicFactor" : 0,
                "roughnessFactor" : 0.5
            }
        },
        {
            "doubleSided" : true,
            "extensions" : {
                "KHR_materials_specular" : {
                    "specularColorFactor" : [
                        0,
                        0,
                        0
                    ]
                },
                "KHR_materials_ior" : {
                    "ior" : 0
                }
            },
            "name" : "TQ_ARD_front.001",
            "pbrMetallicRoughness" : {
                "baseColorTexture" : {
                    "index" : 2
                },
                "metallicFactor" : 0,
                "roughnessFactor" : 0.5
            }
        },
        {
            "doubleSided" : true,
            "extensions" : {
                "KHR_materials_specular" : {
                    "specularColorFactor" : [
                        0,
                        0,
                        0
                    ]
                },
                "KHR_materials_ior" : {
                    "ior" : 0
                }
            },
            "name" : "TQ_ARD_back.002",
            "pbrMetallicRoughness" : {
                "baseColorFactor" : [
                    0.37067461013793945,
                    0.21299925446510315,
                    0.08921150118112564,
                    1
                ],
                "metallicFactor" : 0,
                "roughnessFactor" : 0.5
            }
        },
        {
            "doubleSided" : true,
            "extensions" : {
                "KHR_materials_specular" : {
                    "specularColorFactor" : [
                        0,
                        0,
                        0
                    ]
                },
                "KHR_materials_ior" : {
                    "ior" : 0
                }
            },
            "name" : "TQ_ARD_edge.002",
            "pbrMetallicRoughness" : {
                "baseColorTexture" : {
                    "index" : 3
                },
                "metallicFactor" : 0,
                "roughnessFactor" : 0.5
            }
        }
    ],
    "meshes" : [
        {
            "name" : "TQ_ARD-geom",
            "primitives" : [
                {
                    "attributes" : {
                        "POSITION" : 0,
                        "TEXCOORD_0" : 1,
                        "NORMAL" : 2
                    },
                    "indices" : 3,
                    "material" : 0
                },
                {
                    "attributes" : {
                        "POSITION" : 4,
                        "TEXCOORD_0" : 5,
                        "NORMAL" : 6
                    },
                    "indices" : 7,
                    "material" : 1
                },
                {
                    "attributes" : {
                        "POSITION" : 8,
                        "TEXCOORD_0" : 9,
                        "NORMAL" : 10
                    },
                    "indices" : 11,
                    "material" : 2
                }
            ]
        },
        {
            "name" : "TQ_ARD-geom.003",
            "primitives" : [
                {
                    "attributes" : {
                        "POSITION" : 12,
                        "TEXCOORD_0" : 13,
                        "NORMAL" : 14
                    },
                    "indices" : 15,
                    "material" : 3
                },
                {
                    "attributes" : {
                        "POSITION" : 16,
                        "TEXCOORD_0" : 17,
                        "NORMAL" : 18
                    },
                    "indices" : 19,
                    "material" : 4
                },
                {
                    "attributes" : {
                        "POSITION" : 20,
                        "TEXCOORD_0" : 21,
                        "NORMAL" : 22
                    },
                    "indices" : 23,
                    "material" : 5
                }
            ]
        }
    ],
    "textures" : [
        {
            "sampler" : 0,
            "source" : 0
        },
        {
            "sampler" : 0,
            "source" : 1
        },
        {
            "sampler" : 0,
            "source" : 0
        },
        {
            "sampler" : 0,
            "source" : 1
        }
    ],
    "images" : [
        {
            "bufferView" : 4,
            "mimeType" : "image/jpeg",
            "name" : "A3-01"
        },
        {
            "bufferView" : 13,
            "mimeType" : "image/png",
            "name" : "TQ_ARD-I1"
        }
    ],
    "accessors" : [
        {
            "bufferView" : 0,
            "componentType" : 5126,
            "count" : 1549,
            "max" : [
                0.035150401294231415,
                0.0823165774345398,
                0.3487642705440521
            ],
            "min" : [
                -0.09046325832605362,
                0,
                0.03517649695277214
            ],
            "type" : "VEC3"
        },
        {
            "bufferView" : 1,
            "componentType" : 5126,
            "count" : 1549,
            "type" : "VEC2"
        },
        {
            "bufferView" : 2,
            "componentType" : 5126,
            "count" : 1549,
            "type" : "VEC3"
        },
        {
            "bufferView" : 3,
            "componentType" : 5123,
            "count" : 2742,
            "type" : "SCALAR"
        },
        {
            "bufferView" : 5,
            "componentType" : 5126,
            "count" : 1274,
            "max" : [
                0.034124188125133514,
                0.08157514035701752,
                0.34776070713996887
            ],
            "min" : [
                -0.09017045050859451,
                3.725290298461914e-09,
                0.036202769726514816
            ],
            "type" : "VEC3"
        },
        {
            "bufferView" : 6,
            "componentType" : 5126,
            "count" : 1274,
            "type" : "VEC2"
        },
        {
            "bufferView" : 7,
            "componentType" : 5126,
            "count" : 1274,
            "type" : "VEC3"
        },
        {
            "bufferView" : 8,
            "componentType" : 5123,
            "count" : 2742,
            "type" : "SCALAR"
        },
        {
            "bufferView" : 9,
            "componentType" : 5126,
            "count" : 2035,
            "max" : [
                0.035150401294231415,
                0.0823165774345398,
                0.3487642705440521
            ],
            "min" : [
                -0.09046324342489243,
                0,
                0.03517649695277214
            ],
            "type" : "VEC3"
        },
        {
            "bufferView" : 10,
            "componentType" : 5126,
            "count" : 2035,
            "type" : "VEC2"
        },
        {
            "bufferView" : 11,
            "componentType" : 5126,
            "count" : 2035,
            "type" : "VEC3"
        },
        {
            "bufferView" : 12,
            "componentType" : 5123,
            "count" : 3306,
            "type" : "SCALAR"
        },
        {
            "bufferView" : 14,
            "componentType" : 5126,
            "count" : 1538,
            "max" : [
                0.3004932105541229,
                0.2296355664730072,
                0.06221503019332886
            ],
            "min" : [
                0.10608803480863571,
                -2.9802322387695312e-08,
                -0.25137269496917725
            ],
            "type" : "VEC3"
        },
        {
            "bufferView" : 15,
            "componentType" : 5126,
            "count" : 1538,
            "type" : "VEC2"
        },
        {
            "bufferView" : 16,
            "componentType" : 5126,
            "count" : 1538,
            "type" : "VEC3"
        },
        {
            "bufferView" : 17,
            "componentType" : 5123,
            "count" : 2742,
            "type" : "SCALAR"
        },
        {
            "bufferView" : 18,
            "componentType" : 5126,
            "count" : 1285,
            "max" : [
                0.2996934652328491,
                0.22833514213562012,
                0.06118874251842499
            ],
            "min" : [
                0.10638435930013657,
                -2.9802322387695312e-08,
                -0.25036919116973877
            ],
            "type" : "VEC3"
        },
        {
            "bufferView" : 19,
            "componentType" : 5126,
            "count" : 1285,
            "type" : "VEC2"
        },
        {
            "bufferView" : 20,
            "componentType" : 5126,
            "count" : 1285,
            "type" : "VEC3"
        },
        {
            "bufferView" : 21,
            "componentType" : 5123,
            "count" : 2742,
            "type" : "SCALAR"
        },
        {
            "bufferView" : 22,
            "componentType" : 5126,
            "count" : 2059,
            "max" : [
                0.30047518014907837,
                0.2296355664730072,
                0.06221503019332886
            ],
            "min" : [
                0.1060880646109581,
                -2.9802322387695312e-08,
                -0.25137269496917725
            ],
            "type" : "VEC3"
        },
        {
            "bufferView" : 23,
            "componentType" : 5126,
            "count" : 2059,
            "type" : "VEC2"
        },
        {
            "bufferView" : 24,
            "componentType" : 5126,
            "count" : 2059,
            "type" : "VEC3"
        },
        {
            "bufferView" : 25,
            "componentType" : 5123,
            "count" : 3306,
            "type" : "SCALAR"
        }
    ],
    "bufferViews" : [
        {
            "buffer" : 0,
            "byteLength" : 18588,
            "byteOffset" : 0,
            "target" : 34962
        },
        {
            "buffer" : 0,
            "byteLength" : 12392,
            "byteOffset" : 18588,
            "target" : 34962
        },
        {
            "buffer" : 0,
            "byteLength" : 18588,
            "byteOffset" : 30980,
            "target" : 34962
        },
        {
            "buffer" : 0,
            "byteLength" : 5484,
            "byteOffset" : 49568,
            "target" : 34963
        },
        {
            "buffer" : 0,
            "byteLength" : 948929,
            "byteOffset" : 55052
        },
        {
            "buffer" : 0,
            "byteLength" : 15288,
            "byteOffset" : 1003984,
            "target" : 34962
        },
        {
            "buffer" : 0,
            "byteLength" : 10192,
            "byteOffset" : 1019272,
            "target" : 34962
        },
        {
            "buffer" : 0,
            "byteLength" : 15288,
            "byteOffset" : 1029464,
            "target" : 34962
        },
        {
            "buffer" : 0,
            "byteLength" : 5484,
            "byteOffset" : 1044752,
            "target" : 34963
        },
        {
            "buffer" : 0,
            "byteLength" : 24420,
            "byteOffset" : 1050236,
            "target" : 34962
        },
        {
            "buffer" : 0,
            "byteLength" : 16280,
            "byteOffset" : 1074656,
            "target" : 34962
        },
        {
            "buffer" : 0,
            "byteLength" : 24420,
            "byteOffset" : 1090936,
            "target" : 34962
        },
        {
            "buffer" : 0,
            "byteLength" : 6612,
            "byteOffset" : 1115356,
            "target" : 34963
        },
        {
            "buffer" : 0,
            "byteLength" : 767,
            "byteOffset" : 1121968
        },
        {
            "buffer" : 0,
            "byteLength" : 18456,
            "byteOffset" : 1122736,
            "target" : 34962
        },
        {
            "buffer" : 0,
            "byteLength" : 12304,
            "byteOffset" : 1141192,
            "target" : 34962
        },
        {
            "buffer" : 0,
            "byteLength" : 18456,
            "byteOffset" : 1153496,
            "target" : 34962
        },
        {
            "buffer" : 0,
            "byteLength" : 5484,
            "byteOffset" : 1171952,
            "target" : 34963
        },
        {
            "buffer" : 0,
            "byteLength" : 15420,
            "byteOffset" : 1177436,
            "target" : 34962
        },
        {
            "buffer" : 0,
            "byteLength" : 10280,
            "byteOffset" : 1192856,
            "target" : 34962
        },
        {
            "buffer" : 0,
            "byteLength" : 15420,
            "byteOffset" : 1203136,
            "target" : 34962
        },
        {
            "buffer" : 0,
            "byteLength" : 5484,
            "byteOffset" : 1218556,
            "target" : 34963
        },
        {
            "buffer" : 0,
            "byteLength" : 24708,
            "byteOffset" : 1224040,
            "target" : 34962
        },
        {
            "buffer" : 0,
            "byteLength" : 16472,
            "byteOffset" : 1248748,
            "target" : 34962
        },
        {
            "buffer" : 0,
            "byteLength" : 24708,
            "byteOffset" : 1265220,
            "target" : 34962
        },
        {
            "buffer" : 0,
            "byteLength" : 6612,
            "byteOffset" : 1289928,
            "target" : 34963
        }
    ],
    "samplers" : [
        {
            "magFilter" : 9729,
            "minFilter" : 9987
        }
    ],
    "buffers" : [
        {
            "byteLength" : 1296540,
            "uri" : "data:application/octet-stream;base64,"
        }
    ]
}
