{
    "asset" : {
        "generator" : "Khronos glTF Blender I/O v3.4.50",
        "version" : "2.0"
    },
    "extensionsUsed" : [
        "KHR_materials_specular",
        "KHR_materials_ior"
    ],
    "scene" : 0,
    "scenes" : [
        {
            "name" : "Scene",
            "nodes" : [
                0,
                1
            ]
        }
    ],
    "nodes" : [
        {
            "mesh" : 0,
            "name" : "TQ_ARD-node",
            "rotation" : [
                0,
                1,
                0,
                7.549790126404332e-08
            ],
            "translation" : [
                -0.0009938264265656471,
                0.038988545536994934,
                0.17845404148101807
            ]
        },
        {
            "mesh" : 1,
            "name" : "TQ_ARD-node.001",
            "rotation" : [
                0,
                1,
                0,
                7.549790126404332e-08
            ],
            "translation" : [
                0.13050368428230286,
                0.09582868963479996,
                -0.17312125861644745
            ]
        }
    ],
    "materials" : [
        {
            "doubleSided" : true,
            "extensions" : {
                "KHR_materials_specular" : {
                    "specularColorFactor" : [
                        0,
                        0,
                        0
                    ]
                },
                "KHR_materials_ior" : {
                    "ior" : 0
                }
            },
            "name" : "TQ_ARD_front",
            "pbrMetallicRoughness" : {
                "baseColorFactor" : [
                    0.996078372001648,
                    0.996078372001648,
                    0.996078372001648,
                    1
                ],
                "metallicFactor" : 0,
                "roughnessFactor" : 0.5
            }
        },
        {
            "doubleSided" : true,
            "extensions" : {
                "KHR_materials_specular" : {
                    "specularColorFactor" : [
                        0,
                        0,
                        0
                    ]
                },
                "KHR_materials_ior" : {
                    "ior" : 0
                }
            },
            "name" : "TQ_ARD_back",
            "pbrMetallicRoughness" : {
                "baseColorFactor" : [
                    0.996078372001648,
                    0.9019607901573181,
                    0.6627451181411743,
                    1
                ],
                "metallicFactor" : 0,
                "roughnessFactor" : 0.5
            }
        },
        {
            "doubleSided" : true,
            "extensions" : {
                "KHR_materials_specular" : {
                    "specularColorFactor" : [
                        0,
                        0,
                        0
                    ]
                },
                "KHR_materials_ior" : {
                    "ior" : 0
                }
            },
            "name" : "TQ_ARD_edge",
            "pbrMetallicRoughness" : {
                "baseColorTexture" : {
                    "index" : 0
                },
                "metallicFactor" : 0,
                "roughnessFactor" : 0.5
            }
        },
        {
            "doubleSided" : true,
            "extensions" : {
                "KHR_materials_specular" : {
                    "specularColorFactor" : [
                        0,
                        0,
                        0
                    ]
                },
                "KHR_materials_ior" : {
                    "ior" : 0
                }
            },
            "name" : "TQ_ARD_back.001",
            "pbrMetallicRoughness" : {
                "baseColorFactor" : [
                    0.996078372001648,
                    0.996078372001648,
                    0.996078372001648,
                    1
                ],
                "metallicFactor" : 0,
                "roughnessFactor" : 0.5
            }
        },
        {
            "doubleSided" : true,
            "extensions" : {
                "KHR_materials_specular" : {
                    "specularColorFactor" : [
                        0,
                        0,
                        0
                    ]
                },
                "KHR_materials_ior" : {
                    "ior" : 0
                }
            },
            "name" : "back-dil",
            "pbrMetallicRoughness" : {
                "baseColorFactor" : [
                    1,
                    0.6274398565292358,
                    0.424593448638916,
                    1
                ],
                "metallicFactor" : 0
            }
        },
        {
            "doubleSided" : true,
            "extensions" : {
                "KHR_materials_specular" : {
                    "specularColorFactor" : [
                        0,
                        0,
                        0
                    ]
                },
                "KHR_materials_ior" : {
                    "ior" : 0
                }
            },
            "name" : "TQ_ARD_edge.001",
            "pbrMetallicRoughness" : {
                "baseColorTexture" : {
                    "index" : 1
                },
                "metallicFactor" : 0,
                "roughnessFactor" : 0.5
            }
        }
    ],
    "meshes" : [
        {
            "name" : "TQ_ARD-geom",
            "primitives" : [
                {
                    "attributes" : {
                        "POSITION" : 0,
                        "TEXCOORD_0" : 1,
                        "NORMAL" : 2
                    },
                    "indices" : 3,
                    "material" : 0
                },
                {
                    "attributes" : {
                        "POSITION" : 4,
                        "TEXCOORD_0" : 5,
                        "NORMAL" : 6
                    },
                    "indices" : 7,
                    "material" : 1
                },
                {
                    "attributes" : {
                        "POSITION" : 8,
                        "TEXCOORD_0" : 9,
                        "NORMAL" : 10
                    },
                    "indices" : 11,
                    "material" : 2
                }
            ]
        },
        {
            "name" : "TQ_ARD-geom.001",
            "primitives" : [
                {
                    "attributes" : {
                        "POSITION" : 12,
                        "TEXCOORD_0" : 13,
                        "NORMAL" : 14
                    },
                    "indices" : 15,
                    "material" : 3
                },
                {
                    "attributes" : {
                        "POSITION" : 16,
                        "TEXCOORD_0" : 17,
                        "NORMAL" : 18
                    },
                    "indices" : 19,
                    "material" : 4
                },
                {
                    "attributes" : {
                        "POSITION" : 20,
                        "TEXCOORD_0" : 21,
                        "NORMAL" : 22
                    },
                    "indices" : 23,
                    "material" : 5
                }
            ]
        }
    ],
    "textures" : [
        {
            "sampler" : 0,
            "source" : 0
        },
        {
            "sampler" : 0,
            "source" : 0
        }
    ],
    "images" : [
        {
            "bufferView" : 12,
            "mimeType" : "image/png",
            "name" : "TQ_ARD-I1"
        }
    ],
    "accessors" : [
        {
            "bufferView" : 0,
            "componentType" : 5126,
            "count" : 1541,
            "max" : [
                0.07295839488506317,
                0.04332803189754486,
                0.1566908061504364
            ],
            "min" : [
                -0.05265522003173828,
                -0.038988545536994934,
                -0.1568969190120697
            ],
            "type" : "VEC3"
        },
        {
            "bufferView" : 1,
            "componentType" : 5126,
            "count" : 1541,
            "type" : "VEC2"
        },
        {
            "bufferView" : 2,
            "componentType" : 5126,
            "count" : 1541,
            "type" : "VEC3"
        },
        {
            "bufferView" : 3,
            "componentType" : 5123,
            "count" : 2742,
            "type" : "SCALAR"
        },
        {
            "bufferView" : 4,
            "componentType" : 5126,
            "count" : 1262,
            "max" : [
                0.07266560196876526,
                0.04258659482002258,
                0.15566453337669373
            ],
            "min" : [
                -0.05162900686264038,
                -0.038988541811704636,
                -0.15589341521263123
            ],
            "type" : "VEC3"
        },
        {
            "bufferView" : 5,
            "componentType" : 5126,
            "count" : 1262,
            "type" : "VEC2"
        },
        {
            "bufferView" : 6,
            "componentType" : 5126,
            "count" : 1262,
            "type" : "VEC3"
        },
        {
            "bufferView" : 7,
            "componentType" : 5123,
            "count" : 2742,
            "type" : "SCALAR"
        },
        {
            "bufferView" : 8,
            "componentType" : 5126,
            "count" : 2018,
            "max" : [
                0.07295837998390198,
                0.04332803189754486,
                0.1566908061504364
            ],
            "min" : [
                -0.05265522003173828,
                -0.038988545536994934,
                -0.1568969190120697
            ],
            "type" : "VEC3"
        },
        {
            "bufferView" : 9,
            "componentType" : 5126,
            "count" : 2018,
            "type" : "VEC2"
        },
        {
            "bufferView" : 10,
            "componentType" : 5126,
            "count" : 2018,
            "type" : "VEC3"
        },
        {
            "bufferView" : 11,
            "componentType" : 5123,
            "count" : 3306,
            "type" : "SCALAR"
        },
        {
            "bufferView" : 13,
            "componentType" : 5126,
            "count" : 1525,
            "max" : [
                0.09490542858839035,
                0.13380683958530426,
                0.15669028460979462
            ],
            "min" : [
                -0.09949974715709686,
                -0.09582874923944473,
                -0.1568974405527115
            ],
            "type" : "VEC3"
        },
        {
            "bufferView" : 14,
            "componentType" : 5126,
            "count" : 1525,
            "type" : "VEC2"
        },
        {
            "bufferView" : 15,
            "componentType" : 5126,
            "count" : 1525,
            "type" : "VEC3"
        },
        {
            "bufferView" : 16,
            "componentType" : 5123,
            "count" : 2742,
            "type" : "SCALAR"
        },
        {
            "bufferView" : 17,
            "componentType" : 5126,
            "count" : 1275,
            "max" : [
                0.09410570561885834,
                0.13250643014907837,
                0.15566401183605194
            ],
            "min" : [
                -0.09920342266559601,
                -0.09582874923944473,
                -0.155893936753273
            ],
            "type" : "VEC3"
        },
        {
            "bufferView" : 18,
            "componentType" : 5126,
            "count" : 1275,
            "type" : "VEC2"
        },
        {
            "bufferView" : 19,
            "componentType" : 5126,
            "count" : 1275,
            "type" : "VEC3"
        },
        {
            "bufferView" : 20,
            "componentType" : 5123,
            "count" : 2742,
            "type" : "SCALAR"
        },
        {
            "bufferView" : 21,
            "componentType" : 5126,
            "count" : 2071,
            "max" : [
                0.0948873981833458,
                0.13380683958530426,
                0.15669028460979462
            ],
            "min" : [
                -0.09949971735477448,
                -0.09582874923944473,
                -0.1568974405527115
            ],
            "type" : "VEC3"
        },
        {
            "bufferView" : 22,
            "componentType" : 5126,
            "count" : 2071,
            "type" : "VEC2"
        },
        {
            "bufferView" : 23,
            "componentType" : 5126,
            "count" : 2071,
            "type" : "VEC3"
        },
        {
            "bufferView" : 24,
            "componentType" : 5123,
            "count" : 3306,
            "type" : "SCALAR"
        }
    ],
    "bufferViews" : [
        {
            "buffer" : 0,
            "byteLength" : 18492,
            "byteOffset" : 0,
            "target" : 34962
        },
        {
            "buffer" : 0,
            "byteLength" : 12328,
            "byteOffset" : 18492,
            "target" : 34962
        },
        {
            "buffer" : 0,
            "byteLength" : 18492,
            "byteOffset" : 30820,
            "target" : 34962
        },
        {
            "buffer" : 0,
            "byteLength" : 5484,
            "byteOffset" : 49312,
            "target" : 34963
        },
        {
            "buffer" : 0,
            "byteLength" : 15144,
            "byteOffset" : 54796,
            "target" : 34962
        },
        {
            "buffer" : 0,
            "byteLength" : 10096,
            "byteOffset" : 69940,
            "target" : 34962
        },
        {
            "buffer" : 0,
            "byteLength" : 15144,
            "byteOffset" : 80036,
            "target" : 34962
        },
        {
            "buffer" : 0,
            "byteLength" : 5484,
            "byteOffset" : 95180,
            "target" : 34963
        },
        {
            "buffer" : 0,
            "byteLength" : 24216,
            "byteOffset" : 100664,
            "target" : 34962
        },
        {
            "buffer" : 0,
            "byteLength" : 16144,
            "byteOffset" : 124880,
            "target" : 34962
        },
        {
            "buffer" : 0,
            "byteLength" : 24216,
            "byteOffset" : 141024,
            "target" : 34962
        },
        {
            "buffer" : 0,
            "byteLength" : 6612,
            "byteOffset" : 165240,
            "target" : 34963
        },
        {
            "buffer" : 0,
            "byteLength" : 767,
            "byteOffset" : 171852
        },
        {
            "buffer" : 0,
            "byteLength" : 18300,
            "byteOffset" : 172620,
            "target" : 34962
        },
        {
            "buffer" : 0,
            "byteLength" : 12200,
            "byteOffset" : 190920,
            "target" : 34962
        },
        {
            "buffer" : 0,
            "byteLength" : 18300,
            "byteOffset" : 203120,
            "target" : 34962
        },
        {
            "buffer" : 0,
            "byteLength" : 5484,
            "byteOffset" : 221420,
            "target" : 34963
        },
        {
            "buffer" : 0,
            "byteLength" : 15300,
            "byteOffset" : 226904,
            "target" : 34962
        },
        {
            "buffer" : 0,
            "byteLength" : 10200,
            "byteOffset" : 242204,
            "target" : 34962
        },
        {
            "buffer" : 0,
            "byteLength" : 15300,
            "byteOffset" : 252404,
            "target" : 34962
        },
        {
            "buffer" : 0,
            "byteLength" : 5484,
            "byteOffset" : 267704,
            "target" : 34963
        },
        {
            "buffer" : 0,
            "byteLength" : 24852,
            "byteOffset" : 273188,
            "target" : 34962
        },
        {
            "buffer" : 0,
            "byteLength" : 16568,
            "byteOffset" : 298040,
            "target" : 34962
        },
        {
            "buffer" : 0,
            "byteLength" : 24852,
            "byteOffset" : 314608,
            "target" : 34962
        },
        {
            "buffer" : 0,
            "byteLength" : 6612,
            "byteOffset" : 339460,
            "target" : 34963
        }
    ],
    "samplers" : [
        {
            "magFilter" : 9729,
            "minFilter" : 9987
        }
    ],
    "buffers" : [
        {
            "byteLength" : 346072,
            "uri" : "data:application/octet-stream;base64,"
        }
    ]
}
